{
	"asset":{
		"generator":"Khronos glTF Blender I/O v4.0.44",
		"version":"2.0"
	},
	"extensionsUsed":[
		"KHR_materials_specular",
		"KHR_materials_ior"
	],
	"scene":0,
	"scenes":[
		{
			"name":"Scene",
			"nodes":[
				0
			]
		}
	],
	"nodes":[
		{
			"mesh":0,
			"name":"SM_Item_Flask_01",
			"rotation":[
				0.7071068286895752,
				0,
				0,
				0.7071068286895752
			]
		}
	],
	"materials":[
		{
			"doubleSided":true,
			"extensions":{
				"KHR_materials_specular":{
					"specularColorFactor":[
						2.0,
						2.0,
						2.0
					]
				},
				"KHR_materials_ior":{
					"ior":1.4500000476837158
				}
			},
			"name":"Texture_01",
			"pbrMetallicRoughness":{
				"metallicFactor":0.5,
				"roughnessFactor":0.7487671971321106
			}
		}
	],
	"meshes":[
		{
			"name":"Mesh",
			"primitives":[
				{
					"attributes":{
						"POSITION":0,
						"NORMAL":1,
						"TEXCOORD_0":2,
						"TEXCOORD_1":3
					},
					"indices":4,
					"material":0
				}
			]
		}
	],
	"accessors":[
		{
			"bufferView":0,
			"componentType":5126,
			"count":308,
			"max":[
				0.08451014757156372,
				0.04566919803619385,
				5.960464477539063e-08
			],
			"min":[
				-0.08451014757156372,
				-0.04569590091705322,
				-0.2479000687599182
			],
			"type":"VEC3"
		},
		{
			"bufferView":1,
			"componentType":5126,
			"count":308,
			"type":"VEC3"
		},
		{
			"bufferView":2,
			"componentType":5126,
			"count":308,
			"type":"VEC2"
		},
		{
			"bufferView":3,
			"componentType":5126,
			"count":308,
			"type":"VEC2"
		},
		{
			"bufferView":4,
			"componentType":5123,
			"count":582,
			"type":"SCALAR"
		}
	],
	"bufferViews":[
		{
			"buffer":0,
			"byteLength":3696,
			"byteOffset":0,
			"target":34962
		},
		{
			"buffer":0,
			"byteLength":3696,
			"byteOffset":3696,
			"target":34962
		},
		{
			"buffer":0,
			"byteLength":2464,
			"byteOffset":7392,
			"target":34962
		},
		{
			"buffer":0,
			"byteLength":2464,
			"byteOffset":9856,
			"target":34962
		},
		{
			"buffer":0,
			"byteLength":1164,
			"byteOffset":12320,
			"target":34963
		}
	],
	"buffers":[
		{
			"byteLength":13484,
			"uri":"flask.bin"
		}
	]
}
