{
  "accessors": [
    {
      "bufferView": 0,
      "componentType": 5126,
      "count": 306,
      "type": "VEC3",
      "max": [
        0.064312458038330078,
        0.16605949401855469,
        0.064312458038330078
      ],
      "min": [
        -0.064312458038330078,
        -0.16605949401855469,
        -0.064312458038330078
      ]
    },
    {
      "bufferView": 1,
      "componentType": 5126,
      "count": 306,
      "type": "VEC3",
      "max": [
        0.94088393449783325,
        0.98456209897995,
        0.93515408039093018
      ],
      "min": [
        -0.93849927186965942,
        -1.0,
        -0.94528579711914063
      ]
    },
    {
      "bufferView": 2,
      "componentType": 5126,
      "count": 306,
      "type": "VEC4",
      "max": [
        1.0,
        1.0,
        0.99690288305282593,
        1.0
      ],
      "min": [
        -0.27302998304367065,
        -0.19635705649852753,
        -0.27303045988082886,
        -1.0
      ]
    },
    {
      "bufferView": 3,
      "componentType": 5126,
      "count": 306,
      "type": "VEC2",
      "max": [
        0.34119954705238342,
        0.24006262421607971
      ],
      "min": [
        0.31955403089523315,
        0.16189804673194885
      ]
    },
    {
      "bufferView": 4,
      "componentType": 5125,
      "count": 480,
      "type": "SCALAR",
      "max": [
        305.0
      ],
      "min": [
        0.0
      ]
    }
  ],
  "asset": {
    "generator": "Plattar UnityGLTF (2022.3.14f1)",
    "version": "2.0"
  },
  "buffers": [
    {
      "uri": "SM_Item_Bottle_01.bin",
      "byteLength": 16608
    }
  ],
  "bufferViews": [
    {
      "buffer": 0,
      "byteLength": 3672
    },
    {
      "buffer": 0,
      "byteOffset": 3672,
      "byteLength": 3672
    },
    {
      "buffer": 0,
      "byteOffset": 7344,
      "byteLength": 4896
    },
    {
      "buffer": 0,
      "byteOffset": 12240,
      "byteLength": 2448
    },
    {
      "buffer": 0,
      "byteOffset": 14688,
      "byteLength": 1920
    }
  ],
  "images": [
    {
      "uri": "Texture_Emmisive.jpg",
      "name": "Texture_Emmisive"
    }
  ],
  "materials": [
    {
      "emissiveTexture": {
        "index": 0
      },
      "emissiveFactor": [
        0.0,
        0.0,
        0.0
      ],
      "name": "PolygonPirates_Material_01_A"
    }
  ],
  "meshes": [
    {
      "primitives": [
        {
          "attributes": {
            "POSITION": 0,
            "NORMAL": 1,
            "TANGENT": 2,
            "TEXCOORD_0": 3
          },
          "indices": 4,
          "material": 0
        }
      ],
      "name": "SM_Item_Bottle_01"
    }
  ],
  "nodes": [
    {
      "mesh": 0,
      "rotation": [
        0.0,
        0.0,
        0.0,
        -1.0
      ],
      "name": "SM_Item_Bottle_01"
    }
  ],
  "samplers": [
    {
      "minFilter": 9729
    }
  ],
  "scene": 0,
  "scenes": [
    {
      "nodes": [
        0
      ],
      "name": "SM_Item_Bottle_01"
    }
  ],
  "textures": [
    {
      "sampler": 0,
      "source": 0,
      "name": "Texture_Emmisive"
    }
  ]
}